<?xml version="1.0" encoding="utf-8"?>
<!-- Generator: Adobe Illustrator 27.0.0, SVG Export Plug-In . SVG Version: 6.00 Build 0)  -->
<svg version="1.1" id="Layer_1" xmlns="http://www.w3.org/2000/svg" xmlns:xlink="http://www.w3.org/1999/xlink" x="0px" y="0px"
	 viewBox="0 0 5000 3000" style="enable-background:new 0 0 5000 3000;" xml:space="preserve">
<style type="text/css">
	.st0{fill:#231F20;}
</style>
<g>
	<text transform="matrix(1 0 0 1 4692.9053 4948.5469)" style="font-family:'MyriadPro-Regular'; font-size:12px;">Lorem ipsum</text>
	<text transform="matrix(1 0 0 1 7638.1133 666.585)" style="font-family:'MyriadPro-Regular'; font-size:12px;">Lorem ipsum</text>
</g>
<path class="st0" d="M3053.51,1267.72l-254.48,631.71l-137.25-252l113.9-209.13h-35.7l-96.05,176.35l-96.05-176.35h-35.7
	l113.9,209.13l-137.29,252.08l-199.69-506.63l-41.6-105.54c-2.45-6.23-8.35-10.24-15.03-10.24c-0.04,0-0.08,0-0.11,0
	c-6.73,0.05-12.62,4.14-15,10.44l-251.29,663.73h111.18l77.06-198.08h171.85v-31.36h-193.29l-77.06,198.08h-44.34l91.32-241.19
	h212.55v-31.36h-200.68l118.1-311.95l35.29,89.54l202.35,513.38h33.7l-0.31-0.79l140.16-257.33l140.16,257.33l-0.31,0.79h33.7
	l269.69-670.61H3053.51z"/>
</svg>
